<svg width="40" height="40" viewBox="0 0 40 40" fill="none" xmlns="http://www.w3.org/2000/svg">
<path d="M0 0H24C32.8366 0 40 7.16344 40 16V40H16C7.16344 40 0 32.8366 0 24V0Z" fill="#FF93C0"/>
<path fill-rule="evenodd" clip-rule="evenodd" d="M23.7496 16.25C23.7496 16.25 28.1271 12.6562 28.1271 9.375C28.1271 6.95875 26.1671 5 23.7496 5C21.3321 5 19.3721 6.95875 19.3721 9.375C19.3721 12.6562 23.7496 16.25 23.7496 16.25Z" stroke="#171624" stroke-width="1.5" stroke-linecap="round" stroke-linejoin="round"/>
<path d="M23.7512 9.1875C23.9237 9.1875 24.0637 9.3275 24.0625 9.5C24.0625 9.6725 23.9225 9.8125 23.75 9.8125C23.5775 9.8125 23.4375 9.6725 23.4375 9.5C23.4375 9.3275 23.5775 9.1875 23.7512 9.1875" stroke="#171624" stroke-width="1.5" stroke-linecap="round" stroke-linejoin="round"/>
<path d="M19.4138 8.78125C13.475 9.08875 8.75 13.985 8.75 20C8.75 26.2138 13.7862 31.25 20 31.25C26.2138 31.25 31.25 26.2138 31.25 20C31.25 16.685 29.81 13.715 27.5287 11.6612" stroke="#171624" stroke-width="1.5" stroke-linecap="round" stroke-linejoin="round"/>
<path d="M15.0001 30.085V29.9962C15.0001 27.4962 20.0001 27.7912 20.0001 24.9962C20.0001 22.4962 16.2501 22.4962 16.2501 18.7462C16.2501 15.2112 13.7501 14.9962 10.0001 14.9962H9.92383" stroke="#171624" stroke-width="1.5" stroke-linecap="round" stroke-linejoin="round"/>
<path d="M27.462 28.4C27.2733 28.3275 27.0858 28.2513 26.907 28.1463C25.112 27.0963 24.5095 24.7913 25.5583 22.9963C26.6083 21.2013 28.9133 20.5988 30.7083 21.6475C30.8408 21.725 30.952 21.8225 31.072 21.9125" stroke="#171624" stroke-width="1.5" stroke-linecap="round" stroke-linejoin="round"/>
</svg>
