<svg width="40" height="40" viewBox="0 0 40 40" fill="none" xmlns="http://www.w3.org/2000/svg">
<path d="M0 0H24C32.8366 0 40 7.16344 40 16V40H16C7.16344 40 0 32.8366 0 24V0Z" fill="#FFB876"/>
<path d="M20.041 13.2466L23.9469 9.45723C24.5831 8.83998 25.4986 8.60577 26.3531 8.84167C27.2075 9.07757 27.8732 9.74829 28.1026 10.6045L31.1624 22.0239C31.3918 22.8801 31.1507 23.7938 30.5287 24.4254C29.9066 25.0569 28.9967 25.3118 28.1371 25.0953L22.8598 23.7664" stroke="#171624" stroke-width="1.5" stroke-linecap="round" stroke-linejoin="round"/>
<path fill-rule="evenodd" clip-rule="evenodd" d="M11.9935 15.4029L20.0406 13.2467L22.8594 23.7665L14.8123 25.9227C12.4784 26.5481 10.0794 25.163 9.45401 22.8291L8.89992 20.7612C8.5996 19.6405 8.7568 18.4463 9.33696 17.4414C9.91712 16.4365 10.8727 15.7033 11.9935 15.4029Z" stroke="#171624" stroke-width="1.5" stroke-linecap="round" stroke-linejoin="round"/>
<path d="M20.5087 24.3964L21.4719 27.9909C21.6435 28.6314 21.5536 29.3138 21.2221 29.888C20.8906 30.4622 20.3445 30.8812 19.704 31.0528L19.2887 31.1641C18.6483 31.3357 17.9659 31.2459 17.3916 30.9144C16.8174 30.5829 16.3984 30.0368 16.2268 29.3964L15.2637 25.8018" stroke="#171624" stroke-width="1.5" stroke-linecap="round" stroke-linejoin="round"/>
</svg>
