<svg width="40" height="40" viewBox="0 0 40 40" fill="none" xmlns="http://www.w3.org/2000/svg">
<path d="M0 0H24C32.8366 0 40 7.16344 40 16V40H16C7.16344 40 0 32.8366 0 24V0Z" fill="#1CF1FF"/>
<path fill-rule="evenodd" clip-rule="evenodd" d="M16 18H13C11.895 18 11 17.105 11 16V13C11 11.895 11.895 11 13 11H16C17.105 11 18 11.895 18 13V16C18 17.105 17.105 18 16 18Z" stroke="#171624" stroke-width="1.5" stroke-linecap="round" stroke-linejoin="round"/>
<path fill-rule="evenodd" clip-rule="evenodd" d="M27 18H24C22.895 18 22 17.105 22 16V13C22 11.895 22.895 11 24 11H27C28.105 11 29 11.895 29 13V16C29 17.105 28.105 18 27 18Z" stroke="#171624" stroke-width="1.5" stroke-linecap="round" stroke-linejoin="round"/>
<path fill-rule="evenodd" clip-rule="evenodd" d="M16 29H13C11.895 29 11 28.105 11 27V24C11 22.895 11.895 22 13 22H16C17.105 22 18 22.895 18 24V27C18 28.105 17.105 29 16 29Z" stroke="#171624" stroke-width="1.5" stroke-linecap="round" stroke-linejoin="round"/>
<path d="M25.5 23V28" stroke="#171624" stroke-width="1.5" stroke-linecap="round" stroke-linejoin="round"/>
<path d="M28 25.5H23" stroke="#171624" stroke-width="1.5" stroke-linecap="round" stroke-linejoin="round"/>
</svg>
