<svg width="60" height="60" viewBox="0 0 60 60" fill="none" xmlns="http://www.w3.org/2000/svg">
<path d="M37.0457 27.0455C37.4851 26.6062 37.4851 25.8938 37.0457 25.4545C36.6064 25.0152 35.8941 25.0152 35.4547 25.4545L28.7502 32.159L25.7957 29.2045C25.3564 28.7652 24.6441 28.7652 24.2048 29.2045C23.7654 29.6438 23.7654 30.3562 24.2048 30.7955L27.9547 34.5455C28.3941 34.9848 29.1064 34.9848 29.5457 34.5455L37.0457 27.0455Z" fill="url(#paint0_linear_1764_5421)"/>
<path fill-rule="evenodd" clip-rule="evenodd" d="M31.8261 6.65354C30.637 6.28215 29.363 6.28215 28.1739 6.65354L11.924 11.729C9.36647 12.5278 7.625 14.8961 7.625 17.5754V26.9175C7.62501 38.4507 14.7843 48.7722 25.5866 52.8126L25.6617 52.8407C28.4599 53.8873 31.5423 53.8863 34.3398 52.838L34.4007 52.8151C45.2119 48.7635 52.375 38.4296 52.375 26.8841V17.5756C52.375 14.8963 50.6336 12.5279 48.0761 11.7291L31.8261 6.65354ZM28.8448 8.80122C29.597 8.56626 30.403 8.56626 31.1553 8.80122L47.4053 13.8768C49.0233 14.3822 50.125 15.8805 50.125 17.5756V26.8841C50.125 37.4915 43.5439 46.9858 33.6111 50.7082L33.5502 50.731C31.2613 51.5888 28.7394 51.5896 26.45 50.7333L26.3749 50.7052C16.4518 46.9936 9.87501 37.5121 9.875 26.9175V17.5754C9.875 15.8803 10.9767 14.382 12.5947 13.8766L28.8448 8.80122Z" fill="url(#paint1_linear_1764_5421)"/>
<defs>
<linearGradient id="paint0_linear_1764_5421" x1="47.0476" y1="6.75" x2="9.78395" y2="53.9336" gradientUnits="userSpaceOnUse">
<stop stop-color="#FFC670"/>
<stop offset="1" stop-color="#6A3FE2"/>
</linearGradient>
<linearGradient id="paint1_linear_1764_5421" x1="47.0476" y1="6.75" x2="9.78395" y2="53.9336" gradientUnits="userSpaceOnUse">
<stop stop-color="#FFC670"/>
<stop offset="1" stop-color="#6A3FE2"/>
</linearGradient>
</defs>
</svg>
