<svg width="60" height="60" viewBox="0 0 60 60" fill="none" xmlns="http://www.w3.org/2000/svg">
<path d="M13.8777 14.8158C13.9146 14.5919 14.0194 14.377 14.1921 14.2043L14.2046 14.1918C14.644 13.7524 15.3563 13.7524 15.7956 14.1918L15.8081 14.2043C16.1591 14.5553 16.2297 15.0805 16.0199 15.5015C15.967 15.6076 15.8964 15.7071 15.808 15.7955L15.7955 15.808C15.3562 16.2473 14.6439 16.2473 14.2045 15.808L14.192 15.7955C14.1335 15.737 14.0821 15.6727 14.0384 15.604C13.9745 15.5038 13.928 15.3958 13.899 15.2841C13.875 15.1921 13.8625 15.0967 13.8625 15C13.8625 14.9379 13.8676 14.8763 13.8777 14.8158Z" fill="url(#paint0_linear_1764_5411)"/>
<path d="M20.2168 15.4737C20.0235 15.0575 20.0986 14.5476 20.4419 14.2043L20.4544 14.1918C20.8937 13.7524 21.606 13.7524 22.0454 14.1918L22.0579 14.2043C22.148 14.2944 22.2197 14.396 22.2728 14.5044C22.4789 14.9244 22.4073 15.4462 22.058 15.7955L22.0455 15.808C21.6062 16.2473 20.8938 16.2473 20.4545 15.808L20.442 15.7955C20.364 15.7175 20.2999 15.6309 20.2496 15.5388C20.2379 15.5174 20.227 15.4957 20.2168 15.4737Z" fill="url(#paint1_linear_1764_5411)"/>
<path d="M26.3625 15.0065C26.3608 14.7164 26.4706 14.4256 26.692 14.2043L26.7045 14.1918C27.1438 13.7524 27.8562 13.7524 28.2955 14.1918L28.308 14.2043C28.7473 14.6436 28.7473 15.3559 28.308 15.7953L28.2955 15.8078C27.8562 16.2471 27.1438 16.2471 26.7045 15.8078L26.692 15.7953C26.4741 15.5773 26.3642 15.2922 26.3625 15.0065Z" fill="url(#paint2_linear_1764_5411)"/>
<path fill-rule="evenodd" clip-rule="evenodd" d="M45 6.375C49.7635 6.375 53.625 10.2365 53.625 15V30C53.625 30.6213 53.1213 31.125 52.5 31.125C51.8787 31.125 51.375 30.6213 51.375 30V23.625H8.625V45C8.625 48.5208 11.4792 51.375 15 51.375H32.5C33.1213 51.375 33.625 51.8787 33.625 52.5C33.625 53.1213 33.1213 53.625 32.5 53.625H15C10.2365 53.625 6.375 49.7635 6.375 45V15C6.375 10.2365 10.2365 6.375 15 6.375H45ZM8.625 15C8.625 11.4792 11.4792 8.625 15 8.625H45C48.5208 8.625 51.375 11.4792 51.375 15V21.375H8.625V15Z" fill="url(#paint3_linear_1764_5411)"/>
<path fill-rule="evenodd" clip-rule="evenodd" d="M45.1909 34.028C43.7323 33.5859 42.1562 34.1509 41.3107 35.419L36.6477 42.4126C35.9398 43.4738 35.8734 44.8385 36.4749 45.9634C37.0765 47.0884 38.2489 47.7911 39.5246 47.7917H42.0417V50.1607C42.0408 51.6848 43.038 53.0298 44.4966 53.4719C45.9552 53.914 47.5313 53.349 48.3768 52.0809L53.0398 45.0874C53.7477 44.0262 53.8141 42.6615 53.2126 41.5366C52.611 40.4116 51.4386 39.7089 50.1629 39.7083H47.6458V37.3392C47.6467 35.8151 46.6495 34.4701 45.1909 34.028ZM43.1828 36.6672C43.4781 36.2242 44.0287 36.0268 44.5382 36.1812C45.0478 36.3357 45.3961 36.8062 45.3958 37.3386V40.8333C45.3958 41.4546 45.8995 41.9583 46.5208 41.9583H50.1624C50.6084 41.9585 51.0181 42.2042 51.2284 42.5975C51.4387 42.9908 51.4153 43.4682 51.1678 43.8392L46.5047 50.8327C46.2094 51.2757 45.6588 51.4731 45.1492 51.3187C44.6397 51.1642 44.2914 50.6937 44.2917 50.1613V46.6667C44.2917 46.0454 43.788 45.5417 43.1667 45.5417H39.5251C39.0791 45.5415 38.6694 45.2958 38.4591 44.9025C38.2488 44.5092 38.2722 44.0318 38.5197 43.6608L43.1828 36.6672Z" fill="url(#paint4_linear_1764_5411)"/>
<defs>
<linearGradient id="paint0_linear_1764_5411" x1="48" y1="6.75" x2="11.2537" y2="55.8778" gradientUnits="userSpaceOnUse">
<stop stop-color="#FFC670"/>
<stop offset="1" stop-color="#6A3FE2"/>
</linearGradient>
<linearGradient id="paint1_linear_1764_5411" x1="48" y1="6.75" x2="11.2537" y2="55.8778" gradientUnits="userSpaceOnUse">
<stop stop-color="#FFC670"/>
<stop offset="1" stop-color="#6A3FE2"/>
</linearGradient>
<linearGradient id="paint2_linear_1764_5411" x1="48" y1="6.75" x2="11.2537" y2="55.8778" gradientUnits="userSpaceOnUse">
<stop stop-color="#FFC670"/>
<stop offset="1" stop-color="#6A3FE2"/>
</linearGradient>
<linearGradient id="paint3_linear_1764_5411" x1="48" y1="6.75" x2="11.2537" y2="55.8778" gradientUnits="userSpaceOnUse">
<stop stop-color="#FFC670"/>
<stop offset="1" stop-color="#6A3FE2"/>
</linearGradient>
<linearGradient id="paint4_linear_1764_5411" x1="48" y1="6.75" x2="11.2537" y2="55.8778" gradientUnits="userSpaceOnUse">
<stop stop-color="#FFC670"/>
<stop offset="1" stop-color="#6A3FE2"/>
</linearGradient>
</defs>
</svg>
