<svg width="60" height="60" viewBox="0 0 60 60" fill="none" xmlns="http://www.w3.org/2000/svg">
<path fill-rule="evenodd" clip-rule="evenodd" d="M31.3749 15.8405V10.0036C31.375 8.71581 32.0582 7.5247 33.1698 6.87455C34.2815 6.2244 35.6546 6.21282 36.777 6.84414L51.14 14.9232C52.675 15.7867 53.625 17.411 53.6249 19.1722V39.9963C53.6249 41.2841 52.9417 42.4753 51.83 43.1254C50.7184 43.7756 49.3453 43.7871 48.2229 43.1558L41.1251 39.1633V45.0002C41.125 46.288 40.4418 47.4791 39.3302 48.1293C38.2185 48.7794 36.8454 48.791 35.723 48.1597L28.625 44.1671V49.9961C28.625 51.284 27.9417 52.4751 26.8301 53.1253C25.7184 53.7754 24.3453 53.787 23.2228 53.1556L8.85998 45.0765C7.32496 44.2131 6.37501 42.5888 6.375 40.8276V20.0034C6.375 18.7156 7.05826 17.5244 8.16993 16.8743C9.28159 16.2241 10.6547 16.2126 11.7772 16.844L18.8751 20.8365V15.0074C18.8752 13.7196 19.5584 12.5285 20.6701 11.8784C21.7817 11.2283 23.1547 11.2167 24.2771 11.848L31.3749 15.8405ZM34.3058 8.81676C34.7274 8.57015 35.2482 8.56576 35.674 8.8052L50.0369 16.8843C50.8635 17.3492 51.375 18.2238 51.3749 19.1722V39.9963C51.3749 40.4848 51.1158 40.9366 50.6941 41.1832C50.2725 41.4298 49.7517 41.4342 49.3259 41.1948L41.1251 36.5818V24.1761C41.1251 22.4149 40.1751 20.7907 38.6401 19.9272L33.6249 17.1062V10.0036C33.625 9.51516 33.8841 9.06336 34.3058 8.81676ZM31.9388 18.7392C31.9457 18.7432 31.9527 18.7471 31.9597 18.751L37.537 21.8882C38.3636 22.3532 38.8751 23.2278 38.8751 24.1761V37.2119C38.8746 37.2297 38.8746 37.2476 38.8751 37.2654V45.0002C38.8751 45.4887 38.6159 45.9405 38.1942 46.1871C37.7726 46.4337 37.2517 46.4381 36.826 46.1986L28.625 41.5856V29.172C28.625 27.4108 27.675 25.7865 26.14 24.9231L21.1251 22.1021V15.0075C21.1251 14.519 21.3843 14.0672 21.8059 13.8206C22.2276 13.5741 22.7484 13.5697 23.1741 13.8091L31.9388 18.7392ZM19.4812 23.759C19.4597 23.7478 19.4386 23.7359 19.418 23.7234L10.6741 18.805C10.2484 18.5655 9.7275 18.5699 9.30583 18.8165C8.88417 19.0631 8.625 19.5149 8.625 20.0034V40.8276C8.625 41.7759 9.13652 42.6505 9.96307 43.1155L24.3259 51.1946C24.7516 51.434 25.2725 51.4297 25.6942 51.1831C26.1158 50.9364 26.375 50.4846 26.375 49.9961V42.2602C26.3749 42.2526 26.3748 42.2451 26.3749 42.2375L26.375 42.2249V29.172C26.375 28.2236 25.8635 27.349 25.0369 26.8841L19.4812 23.759Z" fill="url(#paint0_linear_1764_5408)"/>
<defs>
<linearGradient id="paint0_linear_1764_5408" x1="47.9999" y1="6.7536" x2="11.2612" y2="55.8791" gradientUnits="userSpaceOnUse">
<stop stop-color="#FFC670"/>
<stop offset="1" stop-color="#6A3FE2"/>
</linearGradient>
</defs>
</svg>
