<svg width="60" height="60" viewBox="0 0 60 60" fill="none" xmlns="http://www.w3.org/2000/svg">
<path fill-rule="evenodd" clip-rule="evenodd" d="M36.2466 6.765C32.3849 4.51811 27.6126 4.51811 23.7509 6.765L12.5005 13.3127C8.68045 15.5374 6.32861 19.6253 6.32861 24.0475V35.9525C6.32861 40.3748 8.68058 44.4627 12.5033 46.6874L23.7534 53.2349C27.6151 55.4818 32.3876 55.4818 36.2492 53.2349L47.4995 46.6872C51.3196 44.4625 53.6714 40.3747 53.6714 35.9525V24.0475C53.6714 19.6252 51.3194 15.5372 47.4967 13.3125L36.2466 6.765ZM35.0683 8.78988C31.935 6.96685 28.0625 6.96685 24.9292 8.78988L13.6795 15.3372C10.5797 17.1426 8.67139 20.4598 8.67139 24.0475V35.9525C8.67139 39.5402 10.5794 42.8572 13.6817 44.6625L24.9316 51.21C28.0649 53.033 31.9375 53.0331 35.0708 51.2101L46.3205 44.6627C49.4203 42.8574 51.3286 39.5402 51.3286 35.9525V24.0475C51.3286 20.4598 49.4206 17.1427 46.3183 15.3374L35.0683 8.78988Z" fill="url(#paint0_linear_1764_5418)"/>
<path fill-rule="evenodd" clip-rule="evenodd" d="M30.0001 19.9998C33.0676 19.9998 35.5551 22.4873 35.5551 25.5548C35.5551 28.6223 33.0676 31.1098 30.0001 31.1098C26.9326 31.1098 24.4451 28.6223 24.4451 25.5548C24.4451 22.4873 26.9326 19.9998 30.0001 19.9998Z" stroke="url(#paint1_linear_1764_5418)" stroke-width="2" stroke-linecap="round" stroke-linejoin="round"/>
<path d="M40.0002 40.0001C39.7102 39.2676 39.2577 38.6126 38.6802 38.0776C37.7027 37.1726 36.4277 36.6676 35.0952 36.6676C32.8727 36.6676 27.1302 36.6676 24.9077 36.6676C23.5752 36.6676 22.2977 37.1726 21.3202 38.0776C20.7427 38.6101 20.2927 39.2676 20.0002 40.0001" stroke="url(#paint2_linear_1764_5418)" stroke-width="2" stroke-linecap="round" stroke-linejoin="round"/>
<defs>
<linearGradient id="paint0_linear_1764_5418" x1="48.0353" y1="5.47539" x2="8.75588" y2="55.3585" gradientUnits="userSpaceOnUse">
<stop stop-color="#FFC670"/>
<stop offset="1" stop-color="#6A3FE2"/>
</linearGradient>
<linearGradient id="paint1_linear_1764_5418" x1="34.2324" y1="20.0879" x2="25.5922" y2="31.6395" gradientUnits="userSpaceOnUse">
<stop stop-color="#FFC670"/>
<stop offset="1" stop-color="#6A3FE2"/>
</linearGradient>
<linearGradient id="paint2_linear_1764_5418" x1="37.6193" y1="36.6941" x2="36.9562" y2="42.0149" gradientUnits="userSpaceOnUse">
<stop stop-color="#FFC670"/>
<stop offset="1" stop-color="#6A3FE2"/>
</linearGradient>
</defs>
</svg>
